<mxfile host="app.diagrams.net" agent="Mozilla/5.0 (Macintosh; Intel Mac OS X 10_15_7) AppleWebKit/537.36 (KHTML, like Gecko) Chrome/131.0.0.0 Safari/537.36" version="24.8.8">
  <diagram name="Страница — 1" id="v1rISwCdxnwe8HVVbocP">
    <mxGraphModel dx="5104" dy="1527" grid="1" gridSize="10" guides="1" tooltips="1" connect="1" arrows="1" fold="1" page="1" pageScale="1" pageWidth="2339" pageHeight="3300" math="0" shadow="0">
      <root>
        <mxCell id="0" />
        <mxCell id="1" parent="0" />
        <mxCell id="4LSU8ylqHhiRIgBOHsJV-18" value="" style="rounded=0;whiteSpace=wrap;html=1;" parent="1" vertex="1">
          <mxGeometry x="-360" y="280" width="470" height="280" as="geometry" />
        </mxCell>
        <mxCell id="4LSU8ylqHhiRIgBOHsJV-19" value="Contents" style="text;strokeColor=none;fillColor=none;html=1;fontSize=24;fontStyle=1;verticalAlign=middle;align=center;" parent="1" vertex="1">
          <mxGeometry x="-360" y="280" width="130" height="40" as="geometry" />
        </mxCell>
        <mxCell id="4LSU8ylqHhiRIgBOHsJV-20" value="&lt;ul&gt;&lt;li&gt;Управление публикациями (создание, редактирование, удаление)&lt;/li&gt;&lt;li&gt;&lt;font style=&quot;font-size: 13px;&quot;&gt;&lt;span style=&quot;color: rgb(51, 51, 51); font-family: &amp;quot;TT Norms Pro&amp;quot;, Arial, sans-serif; font-variant-ligatures: none; background-color: rgb(255, 255, 255);&quot;&gt;Репосты.&lt;/span&gt;&lt;br style=&quot;box-sizing: inherit; color: rgb(51, 51, 51); font-family: &amp;quot;TT Norms Pro&amp;quot;, Arial, sans-serif; font-variant-ligatures: none; background-color: rgb(255, 255, 255);&quot;&gt;&lt;/font&gt;&lt;/li&gt;&lt;li&gt;Хранение категорий и тегов&amp;nbsp;&lt;/li&gt;&lt;li&gt;&lt;span style=&quot;color: rgb(51, 51, 51); font-family: &amp;quot;TT Norms Pro&amp;quot;, Arial, sans-serif; font-variant-ligatures: none; background-color: rgb(255, 255, 255);&quot;&gt;&lt;font style=&quot;font-size: 13px;&quot;&gt;Пагинация и фильтрация.&lt;/font&gt;&lt;/span&gt;&lt;/li&gt;&lt;li&gt;Поиск публикаций&lt;/li&gt;&lt;/ul&gt;" style="text;strokeColor=none;fillColor=none;html=1;whiteSpace=wrap;verticalAlign=middle;overflow=hidden;" parent="1" vertex="1">
          <mxGeometry x="-360" y="320" width="450" height="150" as="geometry" />
        </mxCell>
        <mxCell id="4LSU8ylqHhiRIgBOHsJV-22" value="" style="rounded=0;whiteSpace=wrap;html=1;" parent="1" vertex="1">
          <mxGeometry x="-360" y="10" width="470" height="200" as="geometry" />
        </mxCell>
        <mxCell id="4LSU8ylqHhiRIgBOHsJV-23" value="Users" style="text;strokeColor=none;fillColor=none;html=1;fontSize=24;fontStyle=1;verticalAlign=middle;align=center;" parent="1" vertex="1">
          <mxGeometry x="-360" y="10" width="100" height="40" as="geometry" />
        </mxCell>
        <mxCell id="4LSU8ylqHhiRIgBOHsJV-24" value="&lt;ul&gt;&lt;li&gt;&lt;span style=&quot;color: rgb(51, 51, 51); font-family: &amp;quot;TT Norms Pro&amp;quot;, Arial, sans-serif; font-size: 16px; font-variant-ligatures: none; background-color: rgb(255, 255, 255);&quot;&gt;Регистрация новых пользователей.&lt;/span&gt;&lt;/li&gt;&lt;li&gt;&lt;span style=&quot;color: rgb(51, 51, 51); font-family: &amp;quot;TT Norms Pro&amp;quot;, Arial, sans-serif; font-size: 16px; font-variant-ligatures: none; background-color: rgb(255, 255, 255);&quot;&gt;Авторизация пользователей на&amp;nbsp;основе JWT.&lt;/span&gt;&lt;/li&gt;&lt;li&gt;&lt;span style=&quot;color: rgb(51, 51, 51); font-family: &amp;quot;TT Norms Pro&amp;quot;, Arial, sans-serif; font-size: 16px; font-variant-ligatures: none; background-color: rgb(255, 255, 255);&quot;&gt;Смена пароля пользователя.&lt;/span&gt;&lt;/li&gt;&lt;li&gt;&lt;span style=&quot;color: rgb(51, 51, 51); font-family: &amp;quot;TT Norms Pro&amp;quot;, Arial, sans-serif; font-size: 16px; font-variant-ligatures: none; background-color: rgb(255, 255, 255);&quot;&gt;Управление профилями пользователей&lt;/span&gt;&lt;/li&gt;&lt;/ul&gt;" style="text;strokeColor=none;fillColor=none;html=1;whiteSpace=wrap;verticalAlign=middle;overflow=hidden;" parent="1" vertex="1">
          <mxGeometry x="-360" y="40" width="430" height="160" as="geometry" />
        </mxCell>
        <mxCell id="4LSU8ylqHhiRIgBOHsJV-26" value="PostgreSQL" style="shape=cylinder3;whiteSpace=wrap;html=1;boundedLbl=1;backgroundOutline=1;size=15;" parent="1" vertex="1">
          <mxGeometry x="400" y="20" width="220" height="160" as="geometry" />
        </mxCell>
        <mxCell id="4LSU8ylqHhiRIgBOHsJV-27" value="mongaDB" style="shape=cylinder3;whiteSpace=wrap;html=1;boundedLbl=1;backgroundOutline=1;size=15;" parent="1" vertex="1">
          <mxGeometry x="400" y="870" width="180" height="150" as="geometry" />
        </mxCell>
        <mxCell id="4LSU8ylqHhiRIgBOHsJV-30" value="" style="rounded=0;whiteSpace=wrap;html=1;" parent="1" vertex="1">
          <mxGeometry x="-360" y="610" width="470" height="210" as="geometry" />
        </mxCell>
        <mxCell id="4LSU8ylqHhiRIgBOHsJV-31" value="Notifications" style="text;strokeColor=none;fillColor=none;html=1;fontSize=24;fontStyle=1;verticalAlign=middle;align=center;" parent="1" vertex="1">
          <mxGeometry x="-360" y="610" width="180" height="40" as="geometry" />
        </mxCell>
        <mxCell id="4LSU8ylqHhiRIgBOHsJV-32" value="" style="rounded=0;whiteSpace=wrap;html=1;" parent="1" vertex="1">
          <mxGeometry x="-590" y="200" width="120" height="690" as="geometry" />
        </mxCell>
        <mxCell id="4LSU8ylqHhiRIgBOHsJV-33" value="API Gateway" style="text;strokeColor=none;fillColor=none;html=1;fontSize=24;fontStyle=1;verticalAlign=middle;align=center;rotation=270;" parent="1" vertex="1">
          <mxGeometry x="-640" y="525" width="220" height="40" as="geometry" />
        </mxCell>
        <UserObject label="JWT-валидация на уровне Gateway" placeholders="1" id="4LSU8ylqHhiRIgBOHsJV-35">
          <mxCell style="text;html=1;strokeColor=none;fillColor=none;align=center;verticalAlign=middle;whiteSpace=wrap;overflow=hidden;" parent="1" vertex="1">
            <mxGeometry x="-590" y="720" width="120" height="70" as="geometry" />
          </mxCell>
        </UserObject>
        <mxCell id="4LSU8ylqHhiRIgBOHsJV-37" value="&lt;ul&gt;&lt;li&gt;Комментарии&lt;/li&gt;&lt;li&gt;Лайки и подсчёт их количества&lt;/li&gt;&lt;li&gt;Управление лентой пользователя&amp;nbsp;&lt;/li&gt;&lt;/ul&gt;" style="text;strokeColor=none;fillColor=none;html=1;whiteSpace=wrap;verticalAlign=middle;overflow=hidden;" parent="1" vertex="1">
          <mxGeometry x="-360" y="470" width="430" height="80" as="geometry" />
        </mxCell>
        <mxCell id="4LSU8ylqHhiRIgBOHsJV-38" value="&lt;ul&gt;&lt;li&gt;Управление очередями уведомлений.&lt;/li&gt;&lt;li&gt;&lt;span style=&quot;background-color: initial;&quot;&gt;Рассылка email-уведомлений&lt;/span&gt;&lt;/li&gt;&lt;li&gt;&lt;span style=&quot;color: rgb(51, 51, 51); font-family: &amp;quot;TT Norms Pro&amp;quot;, Arial, sans-serif; font-size: 16px; font-variant-ligatures: none; background-color: rgb(255, 255, 255);&quot;&gt;Подписка на&amp;nbsp;обновления других пользователей.&lt;/span&gt;&lt;/li&gt;&lt;/ul&gt;" style="text;strokeColor=none;fillColor=none;html=1;whiteSpace=wrap;verticalAlign=middle;overflow=hidden;" parent="1" vertex="1">
          <mxGeometry x="-360" y="650" width="470" height="80" as="geometry" />
        </mxCell>
        <mxCell id="4LSU8ylqHhiRIgBOHsJV-39" value="" style="rounded=0;whiteSpace=wrap;html=1;" parent="1" vertex="1">
          <mxGeometry x="-360" y="870" width="470" height="160" as="geometry" />
        </mxCell>
        <mxCell id="4LSU8ylqHhiRIgBOHsJV-40" value="Media/C3" style="text;strokeColor=none;fillColor=none;html=1;fontSize=24;fontStyle=1;verticalAlign=middle;align=center;" parent="1" vertex="1">
          <mxGeometry x="-360" y="870" width="140" height="40" as="geometry" />
        </mxCell>
        <mxCell id="4LSU8ylqHhiRIgBOHsJV-41" value="&lt;ul&gt;&lt;li&gt;Загрузка изображений&lt;/li&gt;&lt;li&gt;Хранение медиафайлов.&lt;/li&gt;&lt;/ul&gt;" style="text;strokeColor=none;fillColor=none;html=1;whiteSpace=wrap;verticalAlign=middle;overflow=hidden;" parent="1" vertex="1">
          <mxGeometry x="-350" y="920" width="400" height="80" as="geometry" />
        </mxCell>
        <mxCell id="4LSU8ylqHhiRIgBOHsJV-44" value="" style="edgeStyle=elbowEdgeStyle;elbow=horizontal;endArrow=classic;html=1;curved=0;rounded=0;endSize=8;startSize=8;" parent="1" target="4LSU8ylqHhiRIgBOHsJV-24" edge="1">
          <mxGeometry width="50" height="50" relative="1" as="geometry">
            <mxPoint x="-470" y="445" as="sourcePoint" />
            <mxPoint x="-420" y="395" as="targetPoint" />
            <Array as="points" />
          </mxGeometry>
        </mxCell>
        <mxCell id="4LSU8ylqHhiRIgBOHsJV-45" value="" style="edgeStyle=elbowEdgeStyle;elbow=horizontal;endArrow=classic;html=1;curved=0;rounded=0;endSize=8;startSize=8;exitX=1.001;exitY=0.473;exitDx=0;exitDy=0;exitPerimeter=0;" parent="1" source="4LSU8ylqHhiRIgBOHsJV-32" target="4LSU8ylqHhiRIgBOHsJV-20" edge="1">
          <mxGeometry width="50" height="50" relative="1" as="geometry">
            <mxPoint x="-460" y="455" as="sourcePoint" />
            <mxPoint x="-350" y="130" as="targetPoint" />
            <Array as="points">
              <mxPoint x="-400" y="500" />
            </Array>
          </mxGeometry>
        </mxCell>
        <mxCell id="4LSU8ylqHhiRIgBOHsJV-46" value="" style="edgeStyle=elbowEdgeStyle;elbow=horizontal;endArrow=classic;html=1;curved=0;rounded=0;endSize=8;startSize=8;entryX=0;entryY=1;entryDx=0;entryDy=0;" parent="1" target="4LSU8ylqHhiRIgBOHsJV-38" edge="1">
          <mxGeometry width="50" height="50" relative="1" as="geometry">
            <mxPoint x="-470" y="559" as="sourcePoint" />
            <mxPoint x="-350" y="480" as="targetPoint" />
            <Array as="points">
              <mxPoint x="-400" y="640" />
            </Array>
          </mxGeometry>
        </mxCell>
        <mxCell id="4LSU8ylqHhiRIgBOHsJV-47" value="" style="edgeStyle=elbowEdgeStyle;elbow=horizontal;endArrow=classic;html=1;curved=0;rounded=0;endSize=8;startSize=8;exitX=1.003;exitY=0.665;exitDx=0;exitDy=0;exitPerimeter=0;" parent="1" source="4LSU8ylqHhiRIgBOHsJV-32" edge="1">
          <mxGeometry width="50" height="50" relative="1" as="geometry">
            <mxPoint x="-462" y="569" as="sourcePoint" />
            <mxPoint x="-360" y="940" as="targetPoint" />
            <Array as="points">
              <mxPoint x="-440" y="760" />
            </Array>
          </mxGeometry>
        </mxCell>
        <mxCell id="4LSU8ylqHhiRIgBOHsJV-56" value="" style="endArrow=classic;startArrow=classic;html=1;rounded=0;exitX=1;exitY=0.25;exitDx=0;exitDy=0;entryX=0.002;entryY=0.456;entryDx=0;entryDy=0;entryPerimeter=0;" parent="1" edge="1">
          <mxGeometry width="50" height="50" relative="1" as="geometry">
            <mxPoint x="110" y="944" as="sourcePoint" />
            <mxPoint x="400" y="940" as="targetPoint" />
          </mxGeometry>
        </mxCell>
        <mxCell id="4LSU8ylqHhiRIgBOHsJV-57" value="" style="endArrow=classic;startArrow=classic;html=1;rounded=0;exitX=1;exitY=0.25;exitDx=0;exitDy=0;entryX=0.002;entryY=0.456;entryDx=0;entryDy=0;entryPerimeter=0;" parent="1" edge="1">
          <mxGeometry width="50" height="50" relative="1" as="geometry">
            <mxPoint x="110" y="134" as="sourcePoint" />
            <mxPoint x="400" y="130" as="targetPoint" />
          </mxGeometry>
        </mxCell>
        <mxCell id="4LSU8ylqHhiRIgBOHsJV-59" value="" style="endArrow=classic;startArrow=classic;html=1;rounded=0;exitX=0.439;exitY=-0.002;exitDx=0;exitDy=0;exitPerimeter=0;" parent="1" source="4LSU8ylqHhiRIgBOHsJV-18" edge="1">
          <mxGeometry width="50" height="50" relative="1" as="geometry">
            <mxPoint x="-150" y="264" as="sourcePoint" />
            <mxPoint x="-154" y="210" as="targetPoint" />
          </mxGeometry>
        </mxCell>
        <mxCell id="4LSU8ylqHhiRIgBOHsJV-60" value="" style="endArrow=classic;startArrow=classic;html=1;rounded=0;exitX=0.458;exitY=0.006;exitDx=0;exitDy=0;exitPerimeter=0;" parent="1" source="4LSU8ylqHhiRIgBOHsJV-30" edge="1">
          <mxGeometry width="50" height="50" relative="1" as="geometry">
            <mxPoint x="-145.18" y="629" as="sourcePoint" />
            <mxPoint x="-145.18" y="560" as="targetPoint" />
          </mxGeometry>
        </mxCell>
        <mxCell id="4LSU8ylqHhiRIgBOHsJV-61" value="" style="endArrow=classic;startArrow=classic;html=1;rounded=0;entryX=-0.018;entryY=0.452;entryDx=0;entryDy=0;entryPerimeter=0;" parent="1" target="A9zTF9fsh9peaK5On8b--2" edge="1">
          <mxGeometry width="50" height="50" relative="1" as="geometry">
            <mxPoint x="110" y="460" as="sourcePoint" />
            <mxPoint x="160" y="410" as="targetPoint" />
          </mxGeometry>
        </mxCell>
        <mxCell id="4LSU8ylqHhiRIgBOHsJV-62" value="" style="endArrow=classic;startArrow=classic;html=1;rounded=0;entryX=0;entryY=0;entryDx=0;entryDy=90;entryPerimeter=0;" parent="1" target="A9zTF9fsh9peaK5On8b--1" edge="1">
          <mxGeometry width="50" height="50" relative="1" as="geometry">
            <mxPoint x="110" y="720" as="sourcePoint" />
            <mxPoint x="400" y="1130" as="targetPoint" />
          </mxGeometry>
        </mxCell>
        <mxCell id="4LSU8ylqHhiRIgBOHsJV-64" value="" style="shape=partialRectangle;whiteSpace=wrap;html=1;bottom=1;right=1;left=1;top=0;fillColor=none;routingCenterX=-0.5;direction=north;" parent="1" vertex="1">
          <mxGeometry x="110" y="150" width="80" height="600" as="geometry" />
        </mxCell>
        <mxCell id="4LSU8ylqHhiRIgBOHsJV-65" value="" style="shape=partialRectangle;whiteSpace=wrap;html=1;bottom=1;right=1;left=1;top=0;fillColor=none;routingCenterX=-0.5;direction=north;" parent="1" vertex="1">
          <mxGeometry x="110" y="415" width="110" height="600" as="geometry" />
        </mxCell>
        <mxCell id="4LSU8ylqHhiRIgBOHsJV-66" value="" style="shape=partialRectangle;whiteSpace=wrap;html=1;bottom=1;right=1;left=1;top=0;fillColor=none;routingCenterX=-0.5;direction=north;" parent="1" vertex="1">
          <mxGeometry x="110" y="390" width="160" height="410" as="geometry" />
        </mxCell>
        <mxCell id="wBFtKaZ9tB-6uOzgMXfM-1" value="" style="shape=partialRectangle;whiteSpace=wrap;html=1;bottom=1;right=1;left=1;top=0;fillColor=none;routingCenterX=-0.5;direction=north;" parent="1" vertex="1">
          <mxGeometry x="110" y="50" width="140" height="290" as="geometry" />
        </mxCell>
        <mxCell id="A9zTF9fsh9peaK5On8b--1" value="PostgreSQL" style="shape=cylinder3;whiteSpace=wrap;html=1;boundedLbl=1;backgroundOutline=1;size=15;" vertex="1" parent="1">
          <mxGeometry x="400" y="630" width="220" height="130" as="geometry" />
        </mxCell>
        <mxCell id="A9zTF9fsh9peaK5On8b--2" value="PostgreSQL" style="shape=cylinder3;whiteSpace=wrap;html=1;boundedLbl=1;backgroundOutline=1;size=15;" vertex="1" parent="1">
          <mxGeometry x="400" y="390" width="220" height="160" as="geometry" />
        </mxCell>
      </root>
    </mxGraphModel>
  </diagram>
</mxfile>
